<svg width="1200" height="1600" viewBox="0 0 1200 1600" fill="none" xmlns="http://www.w3.org/2000/svg">
  <defs>
    <linearGradient id="bgSignupNew" x1="0" y1="0" x2="1" y2="1">
      <stop offset="0%" stop-color="#052E2B"/>
      <stop offset="50%" stop-color="#0B1220"/>
      <stop offset="100%" stop-color="#0F172A"/>
    </linearGradient>
    <radialGradient id="orbS1" cx="0" cy="0" r="1" gradientUnits="userSpaceOnUse" gradientTransform="translate(940 340) rotate(36) scale(420 420)">
      <stop stop-color="#6EE7B7" stop-opacity="0.45"/>
      <stop offset="1" stop-color="#6EE7B7" stop-opacity="0"/>
    </radialGradient>
    <radialGradient id="orbS2" cx="0" cy="0" r="1" gradientUnits="userSpaceOnUse" gradientTransform="translate(220 1180) rotate(32) scale(520 520)">
      <stop stop-color="#22D3EE" stop-opacity="0.34"/>
      <stop offset="1" stop-color="#22D3EE" stop-opacity="0"/>
    </radialGradient>
  </defs>
  <rect width="1200" height="1600" fill="url(#bgSignupNew)"/>
  <rect width="1200" height="1600" fill="url(#orbS1)"/>
  <rect width="1200" height="1600" fill="url(#orbS2)"/>

  <g opacity="0.22" stroke="#86EFAC" stroke-width="1.8">
    <path d="M120 310C260 350 370 280 500 360C640 445 760 420 900 470C980 500 1040 560 1080 620"/>
    <path d="M100 760C250 720 360 800 490 860C630 925 770 900 910 960C980 990 1030 1030 1080 1090"/>
    <path d="M130 1180C280 1140 400 1210 530 1270C660 1330 810 1300 950 1360"/>
  </g>

  <g fill="#D1FAE5">
    <circle cx="150" cy="310" r="8"/>
    <circle cx="500" cy="360" r="8"/>
    <circle cx="900" cy="470" r="8"/>
    <circle cx="130" cy="760" r="8"/>
    <circle cx="490" cy="860" r="8"/>
    <circle cx="910" cy="960" r="8"/>
    <circle cx="170" cy="1170" r="8"/>
    <circle cx="530" cy="1270" r="8"/>
    <circle cx="950" cy="1360" r="8"/>
  </g>

  <g>
    <rect x="240" y="560" width="710" height="320" rx="24" fill="#0B1220" stroke="#34D399" stroke-opacity="0.48"/>
    <rect x="300" y="650" width="210" height="170" rx="14" fill="#065F46" fill-opacity="0.6"/>
    <rect x="550" y="620" width="210" height="200" rx="14" fill="#0E7490" fill-opacity="0.58"/>
    <rect x="800" y="590" width="90" height="230" rx="14" fill="#10B981" fill-opacity="0.56"/>
    <polyline points="300,620 420,580 640,540 830,500" fill="none" stroke="#A7F3D0" stroke-width="6" stroke-linecap="round"/>
  </g>
</svg>
