<svg width="1200" height="1600" viewBox="0 0 1200 1600" fill="none" xmlns="http://www.w3.org/2000/svg">
  <defs>
    <linearGradient id="bgLoginNew" x1="0" y1="0" x2="1" y2="1">
      <stop offset="0%" stop-color="#020617"/>
      <stop offset="50%" stop-color="#0F172A"/>
      <stop offset="100%" stop-color="#1E293B"/>
    </linearGradient>
    <radialGradient id="orbL1" cx="0" cy="0" r="1" gradientUnits="userSpaceOnUse" gradientTransform="translate(920 280) rotate(30) scale(420 420)">
      <stop stop-color="#67E8F9" stop-opacity="0.5"/>
      <stop offset="1" stop-color="#67E8F9" stop-opacity="0"/>
    </radialGradient>
    <radialGradient id="orbL2" cx="0" cy="0" r="1" gradientUnits="userSpaceOnUse" gradientTransform="translate(260 1200) rotate(32) scale(560 560)">
      <stop stop-color="#93C5FD" stop-opacity="0.38"/>
      <stop offset="1" stop-color="#93C5FD" stop-opacity="0"/>
    </radialGradient>
  </defs>
  <rect width="1200" height="1600" fill="url(#bgLoginNew)"/>
  <rect width="1200" height="1600" fill="url(#orbL1)"/>
  <rect width="1200" height="1600" fill="url(#orbL2)"/>

  <g opacity="0.25" stroke="#7DD3FC" stroke-width="1.8">
    <path d="M120 340C280 280 430 450 590 420C720 395 850 250 1060 300"/>
    <path d="M90 760C250 710 360 860 520 890C690 920 850 800 1040 880"/>
    <path d="M130 1180C310 1130 430 1250 590 1270C760 1290 870 1190 1080 1240"/>
  </g>

  <g fill="#CFFAFE">
    <circle cx="170" cy="332" r="8"/>
    <circle cx="590" cy="420" r="8"/>
    <circle cx="1030" cy="302" r="8"/>
    <circle cx="120" cy="760" r="8"/>
    <circle cx="520" cy="890" r="8"/>
    <circle cx="1040" cy="880" r="8"/>
    <circle cx="155" cy="1174" r="8"/>
    <circle cx="590" cy="1270" r="8"/>
    <circle cx="1060" cy="1238" r="8"/>
  </g>

  <g>
    <rect x="150" y="530" width="430" height="230" rx="22" fill="#0B1220" stroke="#38BDF8" stroke-opacity="0.45"/>
    <rect x="200" y="590" width="330" height="14" rx="7" fill="#A5F3FC" fill-opacity="0.75"/>
    <rect x="200" y="625" width="270" height="14" rx="7" fill="#BAE6FD" fill-opacity="0.58"/>
    <rect x="200" y="660" width="180" height="14" rx="7" fill="#CFFAFE" fill-opacity="0.52"/>
  </g>
</svg>
